<svg xmlns="http://www.w3.org/2000/svg" viewBox="0 0 64 64" role="img" aria-label="VTMaster">
  <defs>
    <linearGradient id="blue" x1="12" y1="10" x2="42" y2="48" gradientUnits="userSpaceOnUse">
      <stop stop-color="#22d3ee"/>
      <stop offset="1" stop-color="#0ea5e9"/>
    </linearGradient>
    <linearGradient id="orange" x1="40" y1="12" x2="53" y2="50" gradientUnits="userSpaceOnUse">
      <stop stop-color="#fbbf24"/>
      <stop offset="1" stop-color="#f97316"/>
    </linearGradient>
  </defs>
  <rect width="64" height="64" rx="14" fill="#0f172a"/>
  <path d="M32 8 50 15v15c0 12-7.5 21-18 26-10.5-5-18-14-18-26V15L32 8Z" fill="#111827" stroke="url(#blue)" stroke-width="3"/>
  <path d="M20 34c4 8 12 12 12 12 6-3 10-8 12-14" fill="none" stroke="url(#orange)" stroke-width="5" stroke-linecap="round"/>
  <path d="M42 14v16h12" fill="none" stroke="url(#orange)" stroke-width="5" stroke-linecap="round" stroke-linejoin="round"/>
  <circle cx="32" cy="31" r="11" fill="#0f172a" stroke="#67e8f9" stroke-width="3"/>
  <path d="M32 20v22M21 31h22M24.5 23.5l15 15M39.5 23.5l-15 15" stroke="#38bdf8" stroke-width="2" stroke-linecap="round"/>
</svg>
